<svg width="64" height="64" viewBox="0 0 512 512" fill="none" xmlns="http://www.w3.org/2000/svg">
  <defs>
    <linearGradient id="bg" x1="86" y1="64" x2="426" y2="448" gradientUnits="userSpaceOnUse">
      <stop stop-color="#1E1E31"/>
      <stop offset="1" stop-color="#0D0D14"/>
    </linearGradient>
    <linearGradient id="rim" x1="96" y1="72" x2="420" y2="440" gradientUnits="userSpaceOnUse">
      <stop stop-color="#FF6B6B"/>
      <stop offset="0.5" stop-color="#FF3838"/>
      <stop offset="1" stop-color="#A61F1F"/>
    </linearGradient>
    <linearGradient id="letter" x1="150" y1="146" x2="362" y2="360" gradientUnits="userSpaceOnUse">
      <stop stop-color="#FFF5F5"/>
      <stop offset="1" stop-color="#FFD3D3"/>
    </linearGradient>
  </defs>

  <rect x="76" y="76" width="360" height="360" rx="108" fill="url(#bg)"/>
  <rect x="92" y="92" width="328" height="328" rx="92" stroke="url(#rim)" stroke-width="20"/>
  <path d="M152 194H360" stroke="#FF3838" stroke-width="14" stroke-linecap="round" opacity="0.7"/>
  <path d="M130 174L178 346H214L256 243L298 346H334L382 174H340L314 282L274 174H238L198 282L172 174H130Z" fill="url(#letter)"/>
  <path d="M130 174L178 346H214L256 243L298 346H334L382 174H340L314 282L274 174H238L198 282L172 174H130Z" stroke="#FF8E8E" stroke-width="10" stroke-linejoin="round"/>
</svg>
