<svg width="512" height="512" viewBox="0 0 512 512" fill="none" xmlns="http://www.w3.org/2000/svg">
  <defs>
    <linearGradient id="bg" x1="86" y1="64" x2="426" y2="448" gradientUnits="userSpaceOnUse">
      <stop stop-color="#1E1E31"/>
      <stop offset="1" stop-color="#0D0D14"/>
    </linearGradient>
    <linearGradient id="rim" x1="96" y1="72" x2="420" y2="440" gradientUnits="userSpaceOnUse">
      <stop stop-color="#FF6B6B"/>
      <stop offset="0.5" stop-color="#FF3838"/>
      <stop offset="1" stop-color="#A61F1F"/>
    </linearGradient>
    <linearGradient id="letter" x1="150" y1="146" x2="362" y2="360" gradientUnits="userSpaceOnUse">
      <stop stop-color="#FFF5F5"/>
      <stop offset="1" stop-color="#FFD3D3"/>
    </linearGradient>
    <filter id="glow" x="24" y="24" width="464" height="464" filterUnits="userSpaceOnUse" color-interpolation-filters="sRGB">
      <feFlood flood-opacity="0" result="BackgroundImageFix"/>
      <feColorMatrix in="SourceAlpha" type="matrix" values="0 0 0 0 0 0 0 0 0 0 0 0 0 0 0 0 0 0 127 0" result="hardAlpha"/>
      <feOffset/>
      <feGaussianBlur stdDeviation="20"/>
      <feComposite in2="hardAlpha" operator="out"/>
      <feColorMatrix type="matrix" values="0 0 0 0 1 0 0 0 0 0.219608 0 0 0 0 0.219608 0 0 0 0.55 0"/>
      <feBlend mode="normal" in2="BackgroundImageFix" result="effect1_dropShadow_1_1"/>
      <feBlend mode="normal" in="SourceGraphic" in2="effect1_dropShadow_1_1" result="shape"/>
    </filter>
  </defs>

  <g filter="url(#glow)">
    <rect x="76" y="76" width="360" height="360" rx="108" fill="url(#bg)"/>
    <rect x="92" y="92" width="328" height="328" rx="92" stroke="url(#rim)" stroke-width="16"/>
    <path d="M140 178H372" stroke="#FF3838" stroke-width="12" stroke-linecap="round" opacity="0.7"/>
    <path d="M158 212H354" stroke="#FF3838" stroke-width="8" stroke-linecap="round" opacity="0.45"/>
    <path d="M130 174L178 346H214L256 243L298 346H334L382 174H340L314 282L274 174H238L198 282L172 174H130Z" fill="url(#letter)"/>
    <path d="M130 174L178 346H214L256 243L298 346H334L382 174H340L314 282L274 174H238L198 282L172 174H130Z" stroke="#FF8E8E" stroke-width="8" stroke-linejoin="round"/>
    <circle cx="148" cy="148" r="14" fill="#FF5252"/>
    <circle cx="364" cy="148" r="14" fill="#FF5252"/>
  </g>
</svg>
